<?xml version="1.0" encoding="UTF-8"?>
<svg width="1200pt" height="1200pt" version="1.1" viewBox="0 0 1200 1200" xmlns="http://www.w3.org/2000/svg">
 <path d="m729.55 172.15c-0.33594 0-0.67188 0.32422-1.0078 0.32422h-394.27c-30.949 0-55.836 24.926-55.836 55.906v743.23c0 30.984 24.887 56.242 55.836 56.242h531.19c30.949 0 55.836-25.246 55.836-56.242v-609.2c0.33594-1.3438 0.33594-2.6992 0-3.707v-0.33594c0-0.32422 0-0.32422-0.33594-0.67188v-0.33594c0-0.33594-0.32422-1.0078-0.32422-1.3438-0.33594-0.33594-0.68359-0.67188-0.68359-1.0078-0.32422-0.33594-0.67188-1.0078-1.3438-1.3438l-182.34-178.49c-1.332-1.3438-3.3594-2.3516-5.0391-2.6992h-1.6914l-0.003907-0.32422zm-395.28 19.188h385.85v122.58c0 30.648 25.234 55.895 55.848 55.895h126.48v601.79c0 20.879-16.477 37.379-36.996 37.379h-531.18c-20.52 0-36.996-16.5-36.996-37.379v-743.22c0-20.879 16.477-37.043 36.996-37.043zm405.04 12.805 105.96 104.39 43.738 42.434h-113.03c-20.52 0-36.672-16.5-36.672-37.043zm8.7461 219.56c0 0.33594 0.33594 1.0078 0.33594 1.3438l-148.68 45.469h-0.67188c-5.0391-0.33594-9.4219 6.0586-8.7461 12.457v5.3867 1.6797 218.89c-2.6875-2.0156-5.7227-4.043-8.7461-5.7227-7.7383-4.3789-16.812-7.0781-26.566-8.7617-9.7578-1.3438-20.52-1.0078-31.285 1.0195-21.191 3.707-41.039 14.148-55.836 27.613-15.145 13.477-25.906 30.301-25.906 48.156s11.773 32.676 27.59 41.426c15.805 8.4102 36.324 11.449 57.863 7.7539 21.191-4.043 41.039-14.484 56.184-27.949 13.453-12.133 23.207-27.277 25.223-43.105v-0.68359c0.33594 0 0-0.33594 0-0.33594 0.33594-0.67188 0.33594-1.6797 0.33594-2.6992v-1.0078l-0.003907-200.03 139.27-42.434c5.0391 1.0078 10.094-5.7344 9.4219-12.457v-57.59c-1.0469-5.7344-5.4141-9.7773-9.7852-8.4219zm-8.4102 23.57v38.387l-130.52 39.406v-35.027c0.33594-1.0078 0-2.3516-0.33594-3.3594zm-199.48 265.7c4.0312 0 8.4102 0 12.109 0.67188 7.7383 1.0195 14.809 3.3711 20.52 6.3945 11.438 6.3945 17.496 14.484 17.496 24.59v1.0078 1.0195c-1.0078 9.4219-7.7383 21.551-19.176 31.656-12.457 11.113-29.941 20.207-47.438 23.242-17.16 3.0234-33.637 0.32422-45.422-6.0703-11.438-6.0586-17.496-14.473-17.496-24.254 0-9.7578 7.0664-23.23 19.512-34.008 12.109-11.113 29.605-19.859 47.102-22.895 4.3828-1.0195 8.4141-1.3555 12.793-1.3555z" fill="#002444"/>
</svg>
