<?xml version="1.0" encoding="UTF-8"?><svg id="Layer_2" xmlns="http://www.w3.org/2000/svg" viewBox="0 0 1018.19 1641.67"><defs><style>.cls-1{fill:rgba(255,255,255,.6);stroke-width:0px;}</style></defs><g id="Layer_1-2"><path class="cls-1" d="m1018.19,820.83c0-108.79-88.03-197.01-196.74-197.35h0s-821.45,0-821.45,0v394.71h821.45c108.71-.34,196.74-88.56,196.74-197.35Z"/><path class="cls-1" d="m820.83,623.48c108.79,0,197.01,88.03,197.35,196.74h0v821.45s-313.21,0-313.21,0l3.54-1018.19s3.52,0,112.31,0Z"/><path class="cls-1" d="m960.39,681.28c76.93,76.93,77.06,201.55.43,278.66h0s-580.85,580.86-580.85,580.86l-279.1-279.1,580.85-580.85h0c77.11-76.63,201.73-76.49,278.66.44Z"/><path class="cls-1" d="m960.39,960.39c76.93-76.93,77.06-201.55.43-278.66h0S379.97,100.87,379.97,100.87L100.87,379.97l580.85,580.85h0c77.11,76.63,201.73,76.49,278.66-.44Z"/><path class="cls-1" d="m820.83,1018.19c108.79,0,197.01-88.03,197.35-196.74h0V0s-313.21,0-313.21,0l3.54,1018.19s3.52,0,112.31,0Z"/></g></svg>