<?xml version="1.0" encoding="UTF-8"?><svg id="Layer_2" xmlns="http://www.w3.org/2000/svg" viewBox="0 0 379.99 379.99"><defs><style>.cls-1{fill:none;stroke:#2c3b4b;stroke-miterlimit:10;stroke-width:3px;}</style></defs><g id="Layer_1-2"><circle class="cls-1" cx="189.99" cy="189.99" r="188.49"/><circle class="cls-1" cx="189.99" cy="189.99" r="179.52"/><circle class="cls-1" cx="189.99" cy="189.99" r="170.54"/><circle class="cls-1" cx="189.99" cy="189.99" r="161.57"/><circle class="cls-1" cx="189.99" cy="189.99" r="152.59"/><circle class="cls-1" cx="189.99" cy="189.99" r="143.61"/><circle class="cls-1" cx="189.99" cy="189.99" r="134.64"/><circle class="cls-1" cx="189.99" cy="189.99" r="125.66"/><circle class="cls-1" cx="189.99" cy="189.99" r="116.69"/><circle class="cls-1" cx="189.99" cy="189.99" r="107.71"/><circle class="cls-1" cx="189.99" cy="189.99" r="98.74"/><circle class="cls-1" cx="189.99" cy="189.99" r="89.76"/><circle class="cls-1" cx="189.99" cy="189.99" r="80.78"/><circle class="cls-1" cx="189.99" cy="189.99" r="71.81"/><circle class="cls-1" cx="189.99" cy="189.99" r="62.83"/><circle class="cls-1" cx="189.99" cy="189.99" r="53.86"/><circle class="cls-1" cx="189.99" cy="189.99" r="44.88"/><circle class="cls-1" cx="189.99" cy="189.99" r="35.9"/><circle class="cls-1" cx="189.99" cy="189.99" r="26.93"/><circle class="cls-1" cx="189.99" cy="189.99" r="17.95"/><circle class="cls-1" cx="189.99" cy="189.99" r="8.98"/></g></svg>