<?xml version="1.0" encoding="UTF-8"?><svg id="Layer_2" xmlns="http://www.w3.org/2000/svg" viewBox="0 0 2174.29 2251.38"><defs><style>.cls-1{fill:none;stroke:#2c3b4b;stroke-miterlimit:10;stroke-width:31.44px;}.cls-2{opacity:.5;}</style></defs><g id="Layer_1-2"><g class="cls-2"><line class="cls-1" x1="203.28" y1="469.35" x2="1867.34" y2="469.35"/><line class="cls-1" x1="203.28" y1="573.43" x2="1867.34" y2="573.43"/><line class="cls-1" x1="203.28" y1="677.51" x2="1867.34" y2="677.51"/><line class="cls-1" x1="203.28" y1="781.6" x2="1867.34" y2="781.6"/><line class="cls-1" x1="203.28" y1="885.68" x2="1867.34" y2="885.68"/><line class="cls-1" x1="203.28" y1="989.77" x2="1867.34" y2="989.77"/><line class="cls-1" x1="203.28" y1="1093.85" x2="1867.34" y2="1093.85"/><line class="cls-1" x1="203.28" y1="1197.93" x2="1867.34" y2="1197.93"/><line class="cls-1" x1="203.28" y1="1302.02" x2="1867.34" y2="1302.02"/><line class="cls-1" x1="203.28" y1="1406.1" x2="1867.34" y2="1406.1"/><line class="cls-1" x1="203.28" y1="1510.18" x2="1867.34" y2="1510.18"/><line class="cls-1" x1="203.28" y1="1614.27" x2="1867.34" y2="1614.27"/><line class="cls-1" x1="203.28" y1="1718.35" x2="1867.34" y2="1718.35"/><line class="cls-1" x1="203.28" y1="1822.43" x2="1867.34" y2="1822.43"/></g><g class="cls-2"><line class="cls-1" x1="11.12" y1="1187.79" x2="1187.79" y2="11.12"/><line class="cls-1" x1="84.71" y1="1261.39" x2="1261.39" y2="84.71"/><line class="cls-1" x1="158.31" y1="1334.98" x2="1334.98" y2="158.31"/><line class="cls-1" x1="231.91" y1="1408.58" x2="1408.58" y2="231.91"/><line class="cls-1" x1="305.51" y1="1482.18" x2="1482.18" y2="305.51"/><line class="cls-1" x1="379.11" y1="1555.78" x2="1555.78" y2="379.11"/><line class="cls-1" x1="452.71" y1="1629.38" x2="1629.38" y2="452.71"/><line class="cls-1" x1="526.3" y1="1702.98" x2="1702.98" y2="526.3"/><line class="cls-1" x1="599.9" y1="1776.57" x2="1776.57" y2="599.9"/><line class="cls-1" x1="673.5" y1="1850.17" x2="1850.17" y2="673.5"/><line class="cls-1" x1="747.1" y1="1923.77" x2="1923.77" y2="747.1"/><line class="cls-1" x1="820.7" y1="1997.37" x2="1997.37" y2="820.7"/><line class="cls-1" x1="894.29" y1="2070.97" x2="2070.97" y2="894.29"/><line class="cls-1" x1="967.89" y1="2144.56" x2="2144.56" y2="967.89"/></g><g class="cls-2"><line class="cls-1" x1="986.5" y1="106.81" x2="2163.17" y2="1283.49"/><line class="cls-1" x1="912.9" y1="180.41" x2="2089.57" y2="1357.08"/><line class="cls-1" x1="839.3" y1="254.01" x2="2015.98" y2="1430.68"/><line class="cls-1" x1="765.71" y1="327.61" x2="1942.38" y2="1504.28"/><line class="cls-1" x1="692.11" y1="401.21" x2="1868.78" y2="1577.88"/><line class="cls-1" x1="618.51" y1="474.8" x2="1795.18" y2="1651.48"/><line class="cls-1" x1="544.91" y1="548.4" x2="1721.58" y2="1725.07"/><line class="cls-1" x1="471.31" y1="622" x2="1647.99" y2="1798.67"/><line class="cls-1" x1="397.71" y1="695.6" x2="1574.39" y2="1872.27"/><line class="cls-1" x1="324.12" y1="769.2" x2="1500.79" y2="1945.87"/><line class="cls-1" x1="250.52" y1="842.8" x2="1427.19" y2="2019.47"/><line class="cls-1" x1="176.92" y1="916.39" x2="1353.59" y2="2093.07"/><line class="cls-1" x1="103.32" y1="989.99" x2="1279.99" y2="2166.66"/><line class="cls-1" x1="29.72" y1="1063.59" x2="1206.4" y2="2240.26"/></g></g></svg>