<?xml version="1.0" encoding="UTF-8"?><svg id="Layer_2" xmlns="http://www.w3.org/2000/svg" viewBox="0 0 583.87 161.57"><defs><style>.cls-1{fill:#fff;stroke-width:0px;}</style></defs><g id="Layer_1-2"><path class="cls-1" d="m86.67,42.82h-20.63v75.07h20.63c21.87,0,37.85-15.36,37.85-37.54s-15.98-37.54-37.85-37.54Z"/><path class="cls-1" d="m0,0v161.57h583.87V0H0Zm86.51,134.64h-38V26.07h38c31.64,0,55.53,22.8,55.53,54.29s-24.04,54.29-55.53,54.29Zm143.31,0h-67.01V26.07h17.53v91.82h49.48v16.75Zm34.9,0h-17.53V26.07h17.53v108.57Zm115.55,0h-20.78l-54.29-83.91,1.71,38.47v45.45h-17.53V26.07h20.63l54.29,83.76-1.55-38.31V26.07h17.53v108.57Zm132.61,8.22l-13.49,10.08-16.91-22.49c-7.76,3.88-16.6,6.05-25.9,6.05-31.8,0-56.3-24.2-56.3-56.15s24.51-56.15,56.3-56.15,56.15,24.2,56.3,56.15c-.16,16.13-6.36,30.4-16.75,40.48l16.75,22.02Z"/><path class="cls-1" d="m456.59,40.95c-22.02,0-38.62,16.75-38.62,39.4s16.6,39.4,38.62,39.4,38.47-16.75,38.47-39.4-16.6-39.4-38.47-39.4Z"/></g></svg>