<?xml version="1.0" encoding="UTF-8"?>
<svg width="1200pt" height="1200pt" version="1.1" viewBox="0 0 1200 1200" xmlns="http://www.w3.org/2000/svg">
 <g fill="#002444">
  <path d="m631.03 246h211.97c9.9492 0 18-8.0625 18-18s-8.0508-18-18-18h-211.97c-9.9492 0-18 8.0625-18 18s8.0547 18 18 18z"/>
  <path d="m631.03 385.2h211.97c9.9492 0 18-8.0625 18-18s-8.0508-18-18-18h-211.97c-9.9492 0-18 8.0625-18 18s8.0547 18 18 18z"/>
  <path d="m843 488.4h-486c-9.9492 0-18 8.0625-18 18s8.0508 18 18 18h486c9.9492 0 18-8.0625 18-18 0-9.9336-8.0508-18-18-18z"/>
  <path d="m843 627.6h-486c-9.9492 0-18 8.0625-18 18s8.0508 18 18 18h486c9.9492 0 18-8.0625 18-18s-8.0508-18-18-18z"/>
  <path d="m843 766.8h-486c-9.9492 0-18 8.0625-18 18s8.0508 18 18 18h486c9.9492 0 18-8.0625 18-18s-8.0508-18-18-18z"/>
  <path d="m672 906h-315c-9.9492 0-18 8.0625-18 18s8.0508 18 18 18h315c9.9492 0 18-8.0625 18-18s-8.0508-18-18-18z"/>
  <path d="m530.17 429.42c9.9492 0 18-8.0625 18-18v-219.42c0-9.9375-8.0508-18-18-18h-183.42c-9.9492 0-18 8.0625-18 18v219.42c0 9.9375 8.0508 18 18 18zm-165.42-219.42h147.42v183.42h-147.42z"/>
  <path d="m942.25 60h-684.51c-26.879 0-48.758 21.863-48.758 48.758v982.5c0 26.879 21.863 48.758 48.758 48.758l522.25-0.003906h0.011719c1.9336 0 3.7695-0.38281 5.5195-0.96094 0.27734-0.085937 0.53906-0.14453 0.80469-0.25391 1.7773-0.67188 3.3828-1.6328 4.8477-2.7969 0.13281-0.097656 0.28906-0.13281 0.40625-0.23828l193.01-162.77c0.17969-0.15625 0.3125-0.34766 0.49219-0.50391 0.49219-0.44531 0.9375-0.91016 1.3672-1.4141 0.35937-0.40625 0.71875-0.81641 1.0312-1.2461 0.35937-0.49219 0.67187-1.0078 0.98437-1.5352 0.28906-0.48047 0.5625-0.96094 0.79297-1.4648 0.25391-0.53906 0.45703-1.1055 0.66016-1.668 0.19141-0.53906 0.37109-1.0664 0.50391-1.6211 0.13281-0.5625 0.22656-1.1289 0.3125-1.7031 0.085937-0.61328 0.15625-1.2227 0.19141-1.8359 0.011719-0.25391 0.070312-0.49219 0.070312-0.74219v-850.5c-0.011718-26.895-21.875-48.758-48.754-48.758zm-697.25 1031.3v-982.5c0-7.0352 5.7109-12.758 12.742-12.758h684.5c7.0312 0 12.758 5.7227 12.758 12.758v832.49l-175.01-0.003906c-9.9492 0-18 8.0625-18 18v144.76h-504.25c-7.0312 0-12.742-5.7227-12.742-12.742zm678.74-114.02-125.75 106.04v-106.04l125.75-0.003906z"/>
 </g>
</svg>
