<?xml version="1.0" encoding="UTF-8"?><svg id="Layer_2" xmlns="http://www.w3.org/2000/svg" width="1200pt" height="1200pt" version="1.1" viewBox="0 0 1200 1200"><defs><style>.cls-1{fill:#002444;stroke-width:0px;}</style></defs><g id="Layer_1-2"><path class="cls-1" d="m422.05,186h211.97c9.95,0,18-8.06,18-18s-8.05-18-18-18h-211.97c-9.95,0-18,8.06-18,18s8.05,18,18,18Z"/><path class="cls-1" d="m422.05,325.2h211.97c9.95,0,18-8.06,18-18s-8.05-18-18-18h-211.97c-9.95,0-18,8.06-18,18s8.05,18,18,18Z"/><path class="cls-1" d="m634.02,428.4H148.02c-9.95,0-18,8.06-18,18s8.05,18,18,18h486c9.95,0,18-8.06,18-18s-8.05-18-18-18h0Z"/><path class="cls-1" d="m634.02,567.6H148.02c-9.95,0-18,8.06-18,18s8.05,18,18,18h486c9.95,0,18-8.06,18-18s-8.05-18-18-18Z"/><path class="cls-1" d="m634.02,706.8H148.02c-9.95,0-18,8.06-18,18s8.05,18,18,18h486c9.95,0,18-8.06,18-18s-8.05-18-18-18Z"/><path class="cls-1" d="m463.02,846H148.02c-9.95,0-18,8.06-18,18s8.05,18,18,18h315c9.95,0,18-8.06,18-18s-8.05-18-18-18Z"/><path class="cls-1" d="m321.19,369.42c9.95,0,18-8.06,18-18v-219.42c0-9.94-8.05-18-18-18h-183.42c-9.95,0-18,8.06-18,18v219.42c0,9.94,8.05,18,18,18h183.42Zm-165.42-219.42h147.42v183.42h-147.42v-183.42Z"/><path class="cls-1" d="m733.27,0H48.76C21.88,0,0,21.86,0,48.76v982.5c0,26.88,21.86,48.76,48.76,48.76h522.25s.01,0,.01,0c1.93,0,3.77-.38,5.52-.96.28-.09.54-.14.8-.25,1.78-.67,3.38-1.63,4.85-2.8.13-.1.29-.13.41-.24l193.01-162.77c.18-.16.31-.35.49-.5.49-.45.94-.91,1.37-1.41.36-.41.72-.82,1.03-1.25.36-.49.67-1.01.98-1.54.29-.48.56-.96.79-1.46.25-.54.46-1.11.66-1.67.19-.54.37-1.07.5-1.62.13-.56.23-1.13.31-1.7.09-.61.16-1.22.19-1.84.01-.25.07-.49.07-.74V48.76c-.01-26.9-21.88-48.76-48.75-48.76h0ZM36.02,1031.3V48.8c0-7.04,5.71-12.76,12.74-12.76h684.5c7.03,0,12.76,5.72,12.76,12.76v832.49h-175.01c-9.95,0-18,8.06-18,18v144.76H48.76c-7.03,0-12.74-5.72-12.74-12.74h0Zm678.74-114.02l-125.75,106.04v-106.04h125.75s0,0,0,0Z"/></g></svg>