<?xml version="1.0" encoding="UTF-8"?>
<svg width="1200pt" height="1200pt" version="1.1" viewBox="0 0 1200 1200" xmlns="http://www.w3.org/2000/svg">
 <path d="m1188 245.73c0-2.4727-1.8125-4.1289-2.7227-6.3828-0.70703-2.1602-0.30078-4.5703-1.8008-6.5391-0.40625-0.39453-0.91016-0.34766-1.0664-0.67188-1.8008-2.1602-4.3086-2.7227-6.9844-3.9492-2.5078-1.1289-4.5234-2.8438-7.2461-3-0.50391-0.046875-0.79297-0.57422-1.2969-0.57422h-1133.7c-0.50391 0-0.80469 0.52734-1.3086 0.57422-2.8203 0.15625-4.8242 1.8125-7.2461 3-2.5078 1.2344-5.0273 1.8828-6.9375 3.9492-0.20312 0.32422-0.96094 0.22656-1.2109 0.67188-1.3555 2.0156-0.99609 4.3789-1.7148 6.5391-0.89062 2.2578-2.7031 3.9141-2.7031 6.3828v708.59c0 2.4727 1.8125 4.1289 2.7109 6.3828 0.75781 2.2188 0.34766 4.6328 1.7148 6.5391 0.40625 0.45703 0.85156 0.25391 1.2109 0.60156 3.6719 4.4297 9.1562 7.5469 15.492 7.5469h1133.7c6.3242 0 11.711-3.1211 15.637-7.5469 0.39453-0.34766 0.70703-0.14453 1.0078-0.60156 1.5117-1.957 1.1055-4.3203 1.8008-6.5391 0.90234-2.2188 2.7031-3.875 2.7031-6.3945v-708.58zm-1133.8 42.984 401.41 311.27-401.41 311.24zm643.15 294.5c-0.10938 0.046875-0.34766 0-0.34766 0.046875l-91.656 71.293-5.2812 4.082-4.4297-3.3242-92.508-72c-0.20312-0.046874-0.30078 0-0.50391-0.046874l-407.95-316.43h1010.5zm-207.24 43.488 97.031 75.227c2.1133 1.7031 4.8242 1.7539 7.3906 2.5547 1.2617 0.30078 2.5078 1.2617 4.0195 1.3555 0.70703 0.058594 1.0547 0.66016 1.5586 0.66016 0.55078 0 1.0547-0.55078 1.5-0.55078 1.5-0.15625 2.6172-0.96094 4.0195-1.3555 2.5195-0.75781 5.2305-0.96094 7.4414-2.6172l97.199-75.227 395.07 306.55-1010.5 0.003906zm254.4-26.676 401.32-311.27v622.56z"/>
</svg>
