<svg width="113" height="22" xmlns="http://www.w3.org/2000/svg" xmlns:xlink="http://www.w3.org/1999/xlink"><defs><path id="a" d="M.252.11H11.47V16H.252z"/></defs><g fill="none" fill-rule="evenodd"><path fill="#FFF" d="m14.134 1.39-1.071 3.33-3.531 8.983-3.443-8.96L4.923 1.39H0v.684l1.846.364.228 2.303v8.184l-.228 2.303L0 15.593v.707h5.175v-.707l-1.824-.364-.25-2.303V2.94l3.946 9.985 1.23 3.374h1.482l1.162-3.374L14.84 2.94v9.985l-.25 2.303-1.823.364v.707h6.291v-.707l-1.825-.364-.25-2.303V4.742l.25-2.303 1.825-.364V1.39zm7.859.206c0-.775.64-1.437 1.437-1.437a1.45 1.45 0 0 1 1.436 1.46c0 .73-.593 1.413-1.436 1.413-.776 0-1.437-.57-1.437-1.436Zm-1.185 13.997 1.596-.296.228-1.732V8.868l-.228-1.755-1.824-.297V6.11l4.24-.41-.227 3.168v4.697l.227 1.732 1.596.296v.707h-5.608v-.707Zm13.735-1.8V7.045c-.639-.273-1.14-.41-1.847-.41-2.143 0-3.329 1.778-3.329 4.582 0 2.485.912 3.99 2.691 3.99.798 0 1.641-.365 2.485-1.414m-7.228-2.097c0-3.557 2.235-6.065 5.472-6.065a7.53 7.53 0 0 1 1.756.206V3.169l-.25-1.755-1.824-.296V.41L36.731 0l-.25 3.168v10.396l.25 1.733 1.482.296v.707l-3.67.478.342-2.165c-1.049 1.413-2.12 2.165-3.625 2.165-2.303 0-3.945-1.983-3.945-5.083m18.949 2.098V7.045c-.64-.273-1.141-.41-1.847-.41-2.143 0-3.33 1.778-3.33 4.582 0 2.485.913 3.99 2.692 3.99.798 0 1.64-.365 2.485-1.414m-7.228-2.097c0-3.557 2.235-6.065 5.472-6.065.639 0 1.14.069 1.756.206V3.169l-.252-1.755-1.823-.296V.41L48.452 0 48.2 3.169v10.396l.25 1.733 1.483.296v.707l-3.67.478.342-2.165c-1.05 1.413-2.12 2.165-3.625 2.165-2.303 0-3.945-1.983-3.945-5.083m12.338 3.897 1.596-.296.251-1.732V3.17l-.25-1.756-1.825-.296V.41L55.386 0l-.229 3.17v10.395l.251 1.732 1.573.296v.707h-5.608zm11.396-6.086 1.55-.228c0-1.801-.844-2.736-2.098-2.736-1.276 0-2.165.958-2.416 2.964h2.964Zm-4.97 1.8c0-3.464 1.756-5.676 4.605-5.676 2.394 0 4.058 1.55 3.967 4.788h-6.588s-.023.319-.023.502c0 2.576 1.254 4.399 3.67 4.399.73 0 1.55-.182 2.348-.774l.457.615c-1.301 1.185-2.28 1.618-3.922 1.618-2.713 0-4.514-1.96-4.514-5.471Zm17.928-.181c0-2.348-1.003-3.944-2.53-3.944-.935 0-1.824.387-2.645 1.345v5.038l.228 1.984c.548.182.934.273 1.527.273 2.349 0 3.42-2.096 3.42-4.696M68.59 16.3V3.169l-.227-1.755-1.825-.296V.41l4.24-.41-.227 3.168v4.287c.843-1.118 2.074-1.825 3.466-1.825 2.188 0 3.716 1.87 3.716 4.766 0 3.534-2.12 6.382-6.225 6.382-.957 0-1.618 0-2.918-.478m11.788-3.077V8.868l-.25-1.755-1.779-.297V6.11l4.217-.41-.228 3.168V12.7c0 1.573.73 2.53 2.166 2.53.981 0 1.87-.593 2.508-1.368V8.868l-.228-1.755-1.778-.297V6.11l4.217-.41-.25 3.168v4.697l.25 1.732 1.641.296v.707l-3.852.411.251-2.05c-1.073 1.48-2.03 2.118-3.648 2.118-2.007 0-3.237-1.277-3.237-3.556"/><g transform="translate(101 6)"><mask id="b" fill="#fff"><use xlink:href="#a"/></mask><path fill="#FFF" mask="url(#b)" d="M1.164 15.704v-.775l2.28-.365.98-1.595.98-2.303-3.19-7.797-.937-1.78L.252.818V.11h4.992v.707l-1.459.273.548 1.779 2.052 5.266L8.3 2.869l.501-1.78L7.365.818V.11h4.104v.707l-1.163.273-.866 1.779-4.97 13.13z"/></g><path d="M99.121 5.937c-1.294 0-2.315.724-3.27 2.33 0-.025-.006-.049-.008-.074l.004-.266c.007-.115.02-.232.034-.347l.086-.76.126-1.11-4.008.41v.705l1.822.296.25 1.753v4.69l-.25 1.731-1.594.296v.706h5.851v-.706l-1.82-.296-.25-1.73V9.257a.98.98 0 0 1 .004-.092c.66-.816 1.544-1.11 2.226-1.11.48 0 .956.158 1.344.34l.57-2.3a3.373 3.373 0 0 0-1.117-.159" fill="#FFF"/></g></svg>