<svg width="66" height="72" fill="none" xmlns="http://www.w3.org/2000/svg"><path fill-rule="evenodd" clip-rule="evenodd" d="M26.23 52.759h-.671l-1.731 1.212.232.507c.103-.035.422-.172.655-.284.232-.112.5-.283.585-.335v3.816h-.998v.765h2.73v-.765h-.801v-4.916Zm9.339-30.062h.871v-4.368h-.871v4.368Zm-4.347.002h2.826v-4.377h-2.826V22.7Zm-2.393-.002h.872v-4.368h-.872v4.368Zm11.389 3.177H25.053v-1.522h2.296v-7.478H37.92v7.478h2.298v1.522ZM27.094 42.618h11.082v-2.642H27.094v2.642Zm3.918 14.421c0-.266-.094-.473-.285-.619-.215-.171-.55-.344-1.11-.576-.423.224-.724.568-.724 1.066 0 .601.43.989 1.103.989.602 0 1.016-.353 1.016-.86Zm-2.007-2.94c0 .5.594.782.999.946.38-.189.827-.49.827-.963 0-.455-.335-.73-.913-.73-.552 0-.913.3-.913.748Zm3.05 2.777c0 1.108-1.164 1.728-2.154 1.728-.991 0-2.033-.49-2.033-1.625 0-.696.465-1.255 1.102-1.478-.525-.215-.922-.74-.922-1.315 0-1.091 1.017-1.521 1.956-1.521 1.085 0 1.835.576 1.835 1.417 0 .705-.551 1.1-1.146 1.324.836.344 1.361.756 1.361 1.47Zm-30.097-24.5s.004 1.37.458 3.65l.159-.053c3.27-1.115 9.172-3.024 13.081-3.024 3.909 0 5.344 1.034 9.093 1.034.432 0 .85.01 1.259.024v-6.84h13.255v7.064c2.655-.08 4.632-.002 7.023.429 3.31.596 5.345 2.745 7.697 3.104 2.354.358 4.427-.16 6.94-.04l1.538.072c.85-3.325.852-5.42.852-5.42V1.919H33.398v.868c.664.285 1.133.917 1.133 1.662 0 .743-.469 1.375-1.133 1.659v1.055c.998.364 2.8 1.236 3.624 3.006.772 1.659.912 3.094.92 3.88h.71v1.522H26.62v-1.522h.71c.007-.786.148-2.221.92-3.88.822-1.767 2.624-2.642 3.624-3.007V6.107c-.664-.284-1.133-.915-1.133-1.659s.469-1.375 1.133-1.66v-.87H1.958v30.458ZM31.806 4.449c0 .432.371.783.83.783.458 0 .83-.35.83-.783 0-.435-.372-.786-.83-.786-.459 0-.83.351-.83.786ZM56.553 50.53l-15.097-9.519v2.057l14.082 8.879a45.66 45.66 0 0 0 1.015-1.417Zm-2.329 3.083-12.767-7.979v.03H23.844l-12.763 7.978c4.547 5.548 11.355 11.332 21.56 16.208 10.229-4.885 17.042-10.68 21.583-16.237Zm-28.436-9.692h13.695v-5.249H25.788v5.25Zm5.434-10.527h2.826v-4.878h-2.826v4.878Zm-7.68 3.434H41.73v-1.304H23.542v1.304ZM9.707 51.869l14.106-8.874v-2.056l-15.12 9.512c.323.47.66.942 1.014 1.418ZM0 0h65.27v32.923c0 .058-.063 5.965-4.136 13.712C57.396 53.74 49.424 63.886 32.654 72 15.897 63.89 7.916 53.743 4.167 46.636.08 38.888 0 32.979 0 32.923V0Zm35.75 55.62c0-.558-.043-.944-.13-1.314-.163-.67-.456-.928-.834-.928-.337 0-.595.267-.759.721-.137.37-.198.86-.198 1.47 0 .576.044 1.024.12 1.341.156.67.466.954.828.954.362 0 .654-.31.81-.808.112-.37.164-.86.164-1.435Zm1.051-.016c0 1.779-.827 2.965-2.033 2.965-1.516 0-1.998-1.762-1.998-2.991 0-1.693.861-2.913 2.007-2.913 1.542 0 2.024 1.692 2.024 2.939ZM6.978 18.986h2.33a15.5 15.5 0 0 1-.316-2.611H6.27a7.57 7.57 0 0 0 .709 2.61Zm-.71-3.915h2.724c.035-.92.143-1.795.315-2.61h-2.33a7.571 7.571 0 0 0-.708 2.61Zm1.497-3.915h1.888c.302-.937.694-1.762 1.159-2.433a7.698 7.698 0 0 0-3.047 2.433Zm3.259 0h2.233V8.229c-.85.357-1.67 1.396-2.233 2.928Zm2.233 1.304h-2.619a14.083 14.083 0 0 0-.34 2.61h2.96v-2.61Zm0 3.915h-2.959c.038.948.158 1.823.34 2.61h2.62v-2.61Zm0 3.915h-2.233c.563 1.532 1.383 2.57 2.233 2.927V20.29Zm-2.445 2.432c-.465-.671-.857-1.495-1.16-2.433H7.766a7.707 7.707 0 0 0 3.047 2.433Zm3.752.495c.85-.358 1.67-1.396 2.233-2.927h-2.233v2.927Zm0-4.231h2.62a14.15 14.15 0 0 0 .339-2.611h-2.959v2.61Zm0-3.915h2.959a14.074 14.074 0 0 0-.34-2.61h-2.619v2.61Zm0-3.915h2.234c-.564-1.531-1.383-2.57-2.234-2.927v2.928Zm2.444-2.434c.466.672.858 1.496 1.16 2.434h1.89a7.703 7.703 0 0 0-3.05-2.434Zm1.506 3.738c.172.816.28 1.691.315 2.61h2.723a7.57 7.57 0 0 0-.708-2.61h-2.33Zm3.038 3.915H18.83c-.036.92-.143 1.795-.315 2.61h2.33c.382-.804.63-1.683.708-2.61Zm-1.495 3.915h-1.888c-.303.937-.695 1.762-1.161 2.433a7.705 7.705 0 0 0 3.049-2.433ZM4.928 15.723c0-4.942 4.03-8.962 8.983-8.962 4.952 0 8.981 4.02 8.981 8.962 0 4.94-4.029 8.961-8.98 8.961-4.954 0-8.984-4.02-8.984-8.961ZM40.574 55.62c0-.56-.043-.945-.13-1.315-.163-.67-.456-.928-.835-.928-.336 0-.594.267-.758.721-.138.37-.198.86-.198 1.47 0 .576.042 1.024.12 1.341.155.67.465.954.828.954.361 0 .654-.31.809-.808.113-.37.164-.86.164-1.435Zm1.05-.017c0 1.779-.826 2.965-2.032 2.965-1.516 0-1.999-1.762-1.999-2.991 0-1.693.862-2.913 2.008-2.913 1.542 0 2.024 1.692 2.024 2.939Zm15.099-37.395s.052-8.795 0-8.738c0 0-3.522.056-5.105 2.931v8.74c1.583-2.877 5.105-2.933 5.105-2.933Zm-6.403 2.857v-8.739c-1.566-2.875-5.051-2.932-5.051-2.932-.05-.056 0 8.74 0 8.74s3.485.055 5.051 2.931Zm.705 3.518-8.381-4.9v-9.462h1.307v8.715l7.074 4.136 7.069-4.136v-8.715H59.4v9.462l-8.376 4.9Z" fill="#FEFEFE"/></svg>