<?xml version="1.0" encoding="UTF-8"?>
<svg width="1200pt" height="1200pt" version="1.1" viewBox="0 0 1200 1200" xmlns="http://www.w3.org/2000/svg">
 <path d="m586.8 1111.2c-27.602 0-56.398-1.1992-88.801-4.8008h-1.1992c-18-2.3984-111.6-26.398-135.6-38.398 0 0-1.1992 0-1.1992-1.1992-1.1992-1.1992-2.3984-2.3984-3.6016-3.6016-1.1992-1.1992-1.1992-3.6016-1.1992-4.8008v-1.1992-58.801c-81.602-51.602-135.6-158.4-156-202.8-4.8008 7.1992-10.801 15.602-16.801 20.398-12 9.6016-33.602 18-36 19.199-1.1992 0-3.6016 1.1992-4.8008 1.1992-22.801-1.1992-40.801-10.801-54-26.398-27.598-35.996-20.398-87.598-20.398-89.996 0-7.1992 15.602-202.8 27.602-259.2 9.6016-50.398 60-70.801 84-74.398 0-19.199 0-58.801-1.1992-94.801 2.3984-33.602 27.602-55.199 56.398-79.199 4.8008-3.6016 8.3984-7.1992 13.199-10.801 1.1992-1.1992 159.6-135.6 414-109.2 220.8 22.801 324 147.6 327.6 153.6 1.1992 1.1992 2.3984 3.6016 2.3984 6 3.6016 25.199 12 97.199 15.602 123.6l19.199 6c30 9.6016 55.199 45.602 55.199 48 0 0 0 1.1992 1.1992 1.1992 48 96 50.398 312 50.398 314.4v3.6016c1.1992 20.398 3.6016 81.602-39.602 109.2-9.6016 6-20.398 8.3984-31.199 4.8008-25.199-8.3984-46.801-44.398-60-69.602-37.199 62.398-138 180-157.2 202.8-3.6016 14.398-7.1992 39.602-2.3984 50.398 2.3984 6 0 12-4.8008 15.602-2.3984 1.1953-85.199 49.195-250.8 49.195zm-84-28.801c181.2 16.801 288-25.199 316.8-38.398-1.1992-10.801-1.1992-22.801 0-33.602-26.398 14.398-70.801 31.199-139.2 38.398-7.1992 1.1992-12-3.6016-13.199-10.801-1.1992-6 3.6016-12 10.801-13.199 126-13.199 159.6-57.602 160.8-57.602 1.1992-2.3984 3.6016-3.6016 6-4.8008 48-56.398 132-159.6 147.6-196.8-4.8008-18-18-63.602-56.398-130.8-22.801-42-40.801-52.801-52.801-55.199s-20.398 4.8008-27.602 10.801c-2.3984 1.1992-3.6016 2.3984-4.8008 3.6016-7.1992 4.8008-20.398 15.602-32.398 26.398-31.199 27.602-52.801 45.602-68.398 46.801-20.398 2.3984-37.199-21.602-52.801-42-2.3984-3.6016-6-8.3984-8.3984-10.801-4.8008 4.8008-10.801 13.199-16.801 19.199-9.6016 10.801-18 21.602-26.398 30 34.801 7.1992 60 37.199 60 73.199 0 40.801-34.801 75.602-78 75.602s-78-33.602-78-75.602c0-25.199 13.199-48 33.602-61.199-12-9.6016-24-22.801-37.199-37.199-9.6016-9.6016-18-19.199-24-24-3.6016-2.3984-6-4.8008-8.3984-7.1992l-3.6016 4.8008c-3.6016 4.8008-8.3984 12-13.199 18-32.398 46.801-44.398 61.199-57.602 57.602-4.8008-1.1992-13.199-3.6016-58.801-85.199l-57.602 52.801c25.199 7.1992 44.398 34.801 44.398 67.199 0 38.398-25.199 68.398-57.602 68.398-32.406 0.003906-57.605-31.195-57.605-69.598 0-12 2.3984-22.801 7.1992-33.602l-22.801-61.199c-10.801 9.6016-27.602 21.602-42 26.398-2.3984 1.1992-4.8008 1.1992-7.1992 2.3984 4.8008 38.398 18 90 22.801 105.6 1.1992 1.1992 1.1992 2.3984 2.3984 3.6016 0 0 1.1992 2.3984 2.3984 6 10.801 26.398 68.398 157.2 159.6 211.2 1.1992 0 90 54 205.2 46.801 6 0 12 4.8008 13.199 10.801 0 7.1992-4.8008 12-10.801 13.199-93.602 6-168-24-201.6-40.801v37.199c30 12 112.8 31.199 121.2 32.398 0.007812 1.2031 0.007812 1.2031 1.207 1.2031zm512.4-322.8c10.801 27.602 34.801 74.398 55.199 80.398 3.6016 1.1992 7.1992 1.1992 10.801-1.1992 31.199-20.398 28.801-72 28.801-88.801v-4.8008c0-2.3984-3.6016-212.4-48-302.4-6-8.3984-24-31.199-43.199-37.199l-22.801-8.4023c-26.398 12-153.6 66-429.6 61.199-301.2-6-357.6-37.199-363.6-42-2.3984-1.1992-4.8008-4.8008-4.8008-7.1992-1.1992 1.1992-3.6016 2.3984-6 2.3984-2.3984 0-6 0-8.3984-1.1992-10.801 0-57.602 13.199-66 55.199-10.797 54.004-26.398 254.4-26.398 256.8 0 1.1992-6 45.602 14.398 70.801 8.3984 10.801 19.199 15.602 34.801 18 7.1992-2.3984 20.398-8.3984 26.398-14.398 6-4.8008 14.398-16.801 20.398-27.602-3.6016-14.398-19.199-72-24-115.2-2.3984-1.1992-4.8008-2.3984-7.1992-3.6016l-2.3984 115.2c0 6-6 12-12 12-7.1992 0-12-6-12-12l2.4023-139.2c0-4.8008 3.6016-9.6016 8.3984-10.801 4.8008-1.1992 9.6016 0 13.199 3.6016 0 0 7.1992 7.1992 15.602 12 1.1992 0 2.3984-1.1992 3.6016-1.1992 3.6016 0 6 1.1992 8.3984 2.3984 1.1992 0 2.3984 0 3.6016-1.1992 20.398-8.3984 48-33.602 48-33.602 2.3984-2.3984 7.1992-3.6016 10.801-2.3984 3.6016 1.1992 7.1992 3.6016 8.3984 7.1992l22.801 62.398 99.602-91.199c2.3984-2.3984 6-3.6016 9.6016-3.6016 3.6016 0 7.1992 2.3984 8.3984 6 18 32.398 39.602 69.602 50.398 82.801 8.3984-9.6016 24-32.398 33.602-45.602 4.8008-7.1992 9.6016-13.199 13.199-19.199l3.6016-4.8008c7.1992-9.6016 10.801-15.602 19.199-15.602 7.1992 0 10.801 4.8008 14.398 8.3984 2.3984 2.3984 4.8008 6 9.6016 9.6016 7.1992 6 16.801 15.602 26.398 26.398 12 13.199 37.199 40.801 45.602 40.801 8.3984-2.3984 31.199-30 43.199-44.398 18-21.602 24-28.801 31.199-30 10.801-2.3984 19.199 7.1992 31.199 24 6 8.3984 24 32.398 31.199 32.398 10.801-1.1992 38.398-26.398 55.199-40.801 14.398-13.199 26.398-24 36-30 0 0 1.1992-1.1992 1.1992-1.1992 7.1992-6 24-20.398 46.801-15.602 24 4.8008 46.801 26.398 69.602 67.199 42 72.008 56.398 118.81 61.199 139.21zm-387.6-75.602c-30 0-54 22.801-54 51.602 0 27.602 24 51.602 54 51.602s54-22.801 54-51.602c0-28.801-24-51.602-54-51.602zm-319.2-7.1992c-18 0-33.602 20.398-33.602 44.398 0 25.199 14.398 44.398 33.602 44.398 19.199 0 33.602-20.398 33.602-44.398s-14.398-44.398-33.602-44.398zm-92.398-280.8c2.3984 1.1992 58.801 32.398 350.4 37.199 259.2 4.8008 386.4-44.398 416.4-57.602-2.3984-18-8.3984-66-13.199-104.4-49.199 14.398-192 46.801-408 44.398-169.2-1.1992-282-9.6016-333.6-22.801-6-1.1992-10.801-8.3984-8.3984-14.398 1.1992-6 8.3984-10.801 14.398-8.3984 50.398 13.199 160.8 20.398 328.8 21.602 211.2 2.3984 350.4-28.801 398.4-43.199-30-30-128.4-116.4-302.4-134.4-202.8-20.398-355.2 67.199-396 103.2-4.8008 3.6016-8.3984 7.1992-13.199 10.801-26.398 22.801-46.801 39.602-48 61.199 1.1992 61.199 2.3984 91.199 0 105.6 3.6016-1.2031 9.6016-1.2031 14.402 1.1953zm255.6 542.4c-4.8008 0-9.6016 0-15.602-1.1992h-2.3984c-25.199-7.1992-73.199-33.602-73.199-85.199 0-4.8008 2.3984-8.3984 6-10.801 7.1992-3.6016 12 0 15.602 2.3984 43.199 27.602 90 28.801 139.2 3.6016 3.6016-2.3984 8.3984-2.3984 12 0 3.6016 2.3984 6 6 6 10.801 0 1.1992-2.3984 37.199-28.801 60-15.602 14.398-34.801 20.398-58.801 20.398zm-12-24c24 2.3984 42-2.3984 55.199-13.199 7.1992-6 12-14.398 15.602-21.602-33.602 12-75.602 18-120-3.6016 11.996 26.402 43.199 36.004 49.199 38.402z"/>
</svg>
