<?xml version="1.0" encoding="UTF-8"?>
<svg width="1200pt" height="1200pt" version="1.1" viewBox="0 0 1200 1200" xmlns="http://www.w3.org/2000/svg">
 <path d="m421.59 490.27h-64.562c-6.3633 0-12.469 2.5273-16.969 7.0273-4.5039 4.5-7.0312 10.605-7.0312 16.973v171.46-0.003907c0 8.5742 4.5742 16.5 12 20.785 7.4258 4.2891 16.574 4.2891 24 0 7.4258-4.2852 12-12.211 12-20.785v-61.727h40.562c17.703-0.089844 34.66-7.1602 47.18-19.68 12.52-12.523 19.594-29.477 19.684-47.184 0.19531-17.793-6.7891-34.914-19.371-47.496s-29.703-19.562-47.492-19.367zm0 85.727h-40.562v-37.727h40.562c5.0352-0.12109 9.9062 1.8281 13.469 5.3906 3.5625 3.5664 5.5117 8.4336 5.3945 13.473 0 5.0039-1.9883 9.8008-5.5273 13.34-3.5352 3.5352-8.3359 5.5234-13.336 5.5234zm189.31-86.016h-64.801c-6.3672 0-12.473 2.5273-16.973 7.0273-4.5 4.5039-7.0273 10.605-7.0273 16.973v172.03c0 6.3672 2.5273 12.469 7.0273 16.973 4.5 4.5 10.605 7.0273 16.973 7.0273h64.801-0.003907c17.824 0 34.918-7.0781 47.52-19.684 12.602-12.602 19.684-29.695 19.684-47.516v-86.016c-0.10156-17.758-7.2266-34.75-19.82-47.27-12.59-12.52-29.625-19.547-47.383-19.547zm19.199 153.02c0 5.0938-2.0234 9.9766-5.625 13.578-3.6016 3.5977-8.4844 5.6211-13.578 5.6211h-40.801l0.003906-124.22h40.801-0.003907c5.0938 0 9.9766 2.0234 13.578 5.625 3.6016 3.5977 5.625 8.4844 5.625 13.574zm82.465 43.199-0.003906-172.22c0-6.3672 2.5312-12.469 7.0312-16.973 4.5-4.5 10.605-7.0273 16.969-7.0273h107.76c8.5742 0 16.496 4.5742 20.785 12 4.2852 7.4258 4.2852 16.574 0 24-4.2891 7.4258-12.211 12-20.785 12h-83.953v38.016h55.633c8.5742 0 16.496 4.5742 20.785 12 4.2852 7.4258 4.2852 16.574 0 24-4.2891 7.4258-12.211 12-20.785 12h-55.633v62.016c0 8.5742-4.5742 16.496-12 20.785-7.4258 4.2852-16.574 4.2852-24 0-7.4258-4.2891-12-12.211-12-20.785zm285.45-407.81c-0.050781-30.723-12.281-60.172-34.012-81.895-21.73-21.719-51.184-33.938-81.906-33.977h-564.2c-30.723 0.039062-60.176 12.258-81.906 33.977-21.73 21.723-33.961 51.172-34.012 81.895v643.2c0.050781 30.723 12.281 60.172 34.012 81.895 21.73 21.719 51.184 33.938 81.906 33.977h431.43c3.168 0.015625 6.3047-0.62109 9.2148-1.8711 2.9062-1.2031 5.5508-2.9648 7.7773-5.1875l224.59-224.59-0.003906 0.003907c2.2266-2.2344 4.0039-4.875 5.2344-7.7773 1.2266-2.918 1.8633-6.0508 1.8711-9.2148zm-748.03 643.2v-643.2c0.039063-17.996 7.207-35.246 19.938-47.965 12.73-12.723 29.984-19.879 47.98-19.906h564.2c17.996 0.027344 35.25 7.1836 47.98 19.906 12.73 12.719 19.898 29.969 19.938 47.965v486.43h-108.82c-30.727 0.039063-60.184 12.266-81.906 33.996-21.727 21.734-33.941 51.195-33.965 81.926v108.72h-407.43c-17.996-0.027344-35.25-7.1836-47.98-19.906-12.73-12.719-19.898-29.969-19.938-47.965zm666.05-108.77-142.7 142.7v-74.781c0.011719-18.004 7.1641-35.266 19.891-47.996 12.723-12.734 29.98-19.902 47.98-19.926z" fill="#002444"/>
</svg>
