<?xml version="1.0" encoding="UTF-8"?>
<svg width="1200pt" height="1200pt" version="1.1" viewBox="0 0 1200 1200" xmlns="http://www.w3.org/2000/svg" path="#002444">
 <path d="m520.8 201.6c-180 0-327.6 147.6-327.6 327.6s147.6 327.6 327.6 327.6c61.199 0 118.8-16.801 168-46.801l220.8 207.6c16.801 15.602 44.398 15.602 60-2.3984l8.3984-9.6016c15.602-16.801 15.602-44.398-2.3984-60l-211.2-198c51.602-57.602 84-134.4 84-218.4 0-180-147.6-327.6-327.6-327.6zm0 94.797c128.4 0 232.8 103.2 232.8 232.8 0 129.6-103.2 232.8-232.8 232.8-129.6 0-232.8-103.2-232.8-232.8 0-128.4 104.4-232.8 232.8-232.8z"/>
</svg>
