<?xml version="1.0" encoding="UTF-8"?><svg id="Layer_2" xmlns="http://www.w3.org/2000/svg" viewBox="0 0 1204.17 468.38"><defs><style>.cls-1{fill:none;}.cls-1,.cls-2,.cls-3,.cls-4,.cls-5{stroke-width:0px;}.cls-2{fill:rgba(0,0,255,.55);}.cls-3{fill:#2c3b4b;}.cls-4{fill:#fff;}.cls-5{fill:aqua;}</style></defs><g id="Layer_1-2"><rect class="cls-4" y=".32" width="78.04" height="390"/><rect class="cls-4" x="297.15" y=".32" width="78.04" height="390"/><rect class="cls-4" x="529.03" y=".32" width="78.04" height="390"/><rect class="cls-4" x="669.85" y=".32" width="78.04" height="390"/><rect class="cls-4" x="827.56" y=".32" width="78.04" height="390"/><rect class="cls-4" x="352.6" y="256.83" width="78.04" height="188.94" transform="translate(742.92 -40.32) rotate(90)"/><path class="cls-4" d="m1037.14.32v.05c-.52-.03-.99-.02-1.5-.05h-11.21c-32.99,1.69-51.29,19.31-56.05,53.04v284.2c4.57,32.41,21.64,49.96,52.25,52.77h25.79V.32h-9.29Z"/><path class="cls-4" d="m1147.93.32h-11.21c-.51.02-.99.01-1.5.05v-.05h-9.12v390h25.38c31.37-2.88,48.56-21.18,52.61-55.14h.05V54.42c-4.52-34.43-22.86-52.4-56.21-54.11Z"/><polygon class="cls-4" points="905.6 390.32 827.44 390.44 669.85 .32 747.89 .32 905.6 390.32"/><path class="cls-4" d="m163.09,391.63h9.17c36.67-1.32,56.91-18.33,61.87-51.13v-26.92H0v78.04h156.08v-.33c2.41.18,4.71.26,7,.33Z"/><path class="cls-5" d="m156.08,391.3v.33h7c-2.29-.07-4.6-.15-7-.33Z"/><path class="cls-4" d="m177.29.32H0v78.04h234.13v-27.24C229.41,19.87,210.77,2.98,177.29.32Z"/><path class="cls-4" d="m234.13,340.5V51.12C229.41,19.87,210.77,2.98,177.29.32h-21.21v390h29.4c28.34-4.64,44.32-21.22,48.65-49.82Z"/><path class="cls-4" d="m1146.3.26h-7.6c-1.16.04-2.28.03-3.48.1v-.1h-98.08v.1c-1.19-.07-2.32-.07-3.48-.1h-7.6c-34.02,1.18-52.85,18.82-57.68,53.09v24.95h235.76v-23.88c-4.59-34.99-23.47-52.97-57.84-54.16Z"/><path class="cls-4" d="m968.38,312.28v25.27c4.57,32.41,21.64,49.96,52.25,52.77h26.09l26.86,77.92,82.56.14-30.05-78.06h25.38c31.37-2.88,48.56-21.18,52.61-55.14h.05v-22.9h-235.76Z"/><path class="cls-2" d="m156.08,391.24v.33h7c-2.29-.07-4.6-.15-7-.33Z"/><path class="cls-2" d="m156.08,391.24v.33h7c-2.29-.07-4.6-.15-7-.33Z"/><rect class="cls-3" x="297.15" y="312.22" width="78.04" height="78.04"/><polygon class="cls-1" points="827.56 197.28 747.89 .26 669.85 .26 827.44 390.38 905.6 390.26 827.56 390.26 827.56 197.28"/><polygon class="cls-3" points="827.56 390.26 905.6 390.26 827.56 197.28 827.56 390.26"/><rect class="cls-3" y="313.53" width="78.04" height="76.74"/><path class="cls-1" d="m156.08,390.26h29.4c28.34-4.64,44.32-21.22,48.65-49.82V78.3h-78.04v311.96Z"/><path class="cls-3" d="m177.29.26h-21.21v78.04h78.04C238.35,38.53,223.32,2.2,177.29.26Z"/><path class="cls-3" d="m1203.67,51.16c-5.06-37.55-32.35-53.63-68.45-50.86v-.05h-9.12v77.98h78.04c-.09-2.06.32-25.8-.47-27.08Z"/><path class="cls-3" d="m968.38,312.22c-4.18,57.78,21.82,82.96,78.04,78.04v-78.04h-78.04Z"/><polygon class="cls-3" points="747.89 .26 669.85 .26 747.89 193.45 747.89 .26"/><rect class="cls-3" y=".26" width="78.04" height="78.04"/><path class="cls-3" d="m156.08,390.26c24.69,1.18,52.33.3,66.93-20.87,12.05-14.44,11.69-38.18,11.12-55.86h-78.04v76.74Z"/><path class="cls-3" d="m1046.42.26h-9.29v.05c-52.86-3.5-72.47,28.98-68.76,77.94h78.04V.26Z"/><path class="cls-3" d="m1126.1,390.26c39.46,3.78,74.17-8.82,78-55.14h.05v-22.9h-78.04v78.04Z"/></g></svg>