<?xml version="1.0" encoding="UTF-8"?><svg id="Layer_2" xmlns="http://www.w3.org/2000/svg" viewBox="0 0 673.8 394.71"><defs><style>.cls-1{fill:rgba(255,255,255,.3);}.cls-1,.cls-2{stroke-width:0px;}.cls-2{fill:rgba(255,255,255,.6);}</style></defs><g id="Layer_1-2"><path class="cls-1" d="m393.65,151.56c-.46.08-.92.16-1.39.23.46-.08.92-.15,1.39-.23Z"/><path class="cls-1" d="m389.03,152.31c-.57.08-1.13.16-1.7.24.57-.08,1.13-.16,1.7-.24Z"/><path class="cls-1" d="m398.28,150.7c-.4.08-.79.16-1.19.23.4-.08.79-.15,1.19-.23Z"/><path class="cls-1" d="m401.83,149.97c-1.18.26-2.36.5-3.55.73,1.19-.23,2.37-.48,3.55-.73Z"/><path class="cls-1" d="m397.09,150.93c-1.15.22-2.29.43-3.44.63,1.15-.2,2.3-.41,3.44-.63Z"/><path class="cls-1" d="m392.27,151.79c-1.08.18-2.16.35-3.24.51,1.08-.16,2.16-.33,3.24-.51Z"/><path class="cls-2" d="m673.8,196.74h0c-.05-16.98-2.25-33.46-6.34-49.18,0-.01,0-.02,0-.04-.41-1.56-.83-3.11-1.27-4.66,0-.02-.01-.03-.02-.05-.44-1.54-.9-3.07-1.38-4.59-.01-.03-.02-.07-.03-.1-.47-1.5-.96-3-1.47-4.49-.02-.05-.04-.11-.06-.16-.5-1.47-1.02-2.93-1.56-4.38-.03-.07-.05-.14-.08-.21-.53-1.43-1.07-2.86-1.64-4.28-.04-.1-.08-.2-.12-.29-.55-1.39-1.12-2.77-1.7-4.14-.05-.12-.11-.24-.16-.37-.58-1.34-1.16-2.68-1.76-4.01-.07-.15-.14-.3-.21-.45-.59-1.3-1.2-2.59-1.82-3.87-.09-.18-.18-.36-.26-.53-.61-1.25-1.23-2.49-1.86-3.73-.11-.2-.22-.41-.32-.61-.62-1.2-1.26-2.4-1.9-3.59-.13-.23-.26-.46-.39-.7-.64-1.15-1.28-2.31-1.94-3.45-.15-.26-.31-.52-.46-.77-.64-1.11-1.29-2.21-1.96-3.3-.18-.29-.36-.58-.54-.87-.65-1.05-1.3-2.1-1.97-3.14-.21-.32-.42-.64-.63-.96-.65-1-1.3-2-1.97-2.98-.24-.36-.49-.71-.73-1.06-.65-.94-1.3-1.89-1.96-2.82-.27-.39-.56-.76-.84-1.15-.65-.89-1.29-1.78-1.95-2.66-.31-.41-.63-.82-.94-1.23-.64-.84-1.28-1.68-1.93-2.51-.35-.44-.7-.87-1.05-1.31-.63-.79-1.26-1.58-1.91-2.36-.39-.47-.79-.93-1.18-1.4-.62-.73-1.23-1.47-1.86-2.19-.44-.5-.88-.99-1.32-1.49-.6-.68-1.2-1.36-1.81-2.03-.48-.53-.97-1.04-1.45-1.57-.58-.63-1.16-1.26-1.76-1.88-.52-.55-1.06-1.09-1.59-1.63-.57-.58-1.13-1.16-1.7-1.74-.57-.57-1.16-1.13-1.74-1.7-.54-.53-1.08-1.06-1.63-1.59-.62-.59-1.25-1.17-1.88-1.76-.52-.48-1.04-.97-1.57-1.45-.67-.61-1.35-1.21-2.03-1.81-.5-.44-.99-.88-1.49-1.32-.72-.63-1.46-1.24-2.19-1.85-.47-.4-.94-.8-1.41-1.19-.78-.64-1.57-1.27-2.36-1.9-.44-.35-.87-.71-1.31-1.05-.83-.65-1.66-1.29-2.5-1.92-.42-.32-.83-.64-1.24-.95-.88-.66-1.77-1.3-2.66-1.94-.38-.28-.77-.56-1.15-.84-.93-.66-1.88-1.31-2.82-1.96-.35-.24-.71-.49-1.06-.73-.99-.67-1.98-1.32-2.98-1.97-.32-.21-.64-.42-.96-.63-1.04-.67-2.09-1.32-3.14-1.97-.29-.18-.58-.36-.87-.54-1.09-.66-2.19-1.31-3.29-1.96-.26-.15-.52-.31-.78-.46-1.14-.66-2.29-1.3-3.44-1.93-.23-.13-.46-.26-.7-.39-1.19-.65-2.39-1.28-3.59-1.9-.2-.11-.41-.22-.61-.32-1.24-.64-2.49-1.26-3.74-1.87-.17-.08-.35-.17-.52-.26-1.29-.62-2.58-1.23-3.88-1.82-.15-.07-.29-.14-.44-.2-1.33-.6-2.67-1.19-4.01-1.77-.12-.05-.24-.11-.36-.16-1.38-.59-2.76-1.15-4.15-1.71-.09-.04-.18-.08-.28-.11-1.41-.56-2.83-1.1-4.26-1.63-.08-.03-.15-.06-.22-.09-1.45-.53-2.9-1.05-4.36-1.55-.06-.02-.12-.04-.18-.06-1.48-.51-2.97-.99-4.47-1.46-.04-.01-.08-.03-.12-.04-1.52-.48-3.05-.94-4.58-1.38-.02,0-.03-.01-.05-.02-1.55-.44-3.11-.87-4.67-1.28,0,0,0,0-.01,0-1.57-.41-3.15-.8-4.73-1.17h0C507.23,1.84,492.35.05,477.07,0h0c-.21,0-.41,0-.62,0h-112.31l-1.37,394.71h114.3c108.71-.34,196.74-88.56,196.74-197.35h0c0-.21,0-.41,0-.62Z"/><path class="cls-2" d="m477.07,394.7c54.48-.17,103.75-22.41,139.37-58.24h0c1.15-1.16,2.29-2.33,3.4-3.51.29-.3.57-.62.86-.92.81-.86,1.61-1.73,2.4-2.61.47-.52.93-1.05,1.4-1.58.58-.66,1.16-1.32,1.73-1.98.59-.69,1.18-1.39,1.76-2.09.42-.5.84-1,1.25-1.51.68-.83,1.36-1.68,2.03-2.52.29-.37.59-.74.88-1.12.75-.96,1.49-1.93,2.22-2.9.2-.26.4-.53.59-.79.79-1.06,1.57-2.13,2.34-3.21.13-.18.26-.37.39-.55.81-1.14,1.61-2.3,2.39-3.46.09-.13.17-.25.26-.38.81-1.2,1.61-2.42,2.39-3.64.06-.1.13-.2.19-.3.79-1.23,1.56-2.48,2.32-3.73.07-.11.13-.22.2-.32.75-1.23,1.48-2.48,2.2-3.73.09-.15.17-.31.26-.46.68-1.2,1.36-2.4,2.02-3.62.13-.24.26-.47.38-.71.6-1.12,1.2-2.25,1.78-3.39.19-.36.37-.73.55-1.09.51-1.01,1.01-2.02,1.51-3.04.25-.52.5-1.05.75-1.58.41-.86.81-1.72,1.2-2.58.33-.71.64-1.43.96-2.15.3-.68.6-1.36.89-2.04.39-.92.78-1.85,1.16-2.77.2-.49.4-.97.6-1.46.45-1.13.89-2.26,1.32-3.39.11-.29.22-.59.33-.88.49-1.32.97-2.65,1.44-3.98.04-.11.08-.23.12-.34,4.16-12,7.13-24.32,8.9-36.78,0,0,0-.01,0-.02.22-1.51.41-3.02.59-4.54.02-.15.03-.3.05-.45.16-1.38.31-2.77.44-4.15.03-.31.06-.63.08-.94.11-1.23.21-2.47.3-3.7.04-.51.06-1.03.1-1.54.07-1.05.13-2.11.18-3.16.04-.75.06-1.51.09-2.26.03-.84.07-1.68.09-2.52.02-1.07.03-2.14.04-3.21,0-.55.02-1.1.02-1.65,0-1.63-.02-3.26-.06-4.89-.02-.6-.05-1.2-.07-1.8-.03-1.01-.06-2.01-.11-3.01-.06-1.11-.13-2.22-.2-3.32-.03-.48-.06-.95-.09-1.43-.1-1.3-.21-2.59-.33-3.89-.03-.27-.05-.55-.07-.82-.14-1.42-.29-2.83-.46-4.25-.02-.14-.03-.28-.05-.42-.18-1.5-.38-3-.6-4.5,0-.05-.01-.1-.02-.15-.91-6.22-2.11-12.41-3.61-18.54,0-.02-.01-.05-.02-.07-.36-1.47-.74-2.95-1.14-4.41-.03-.1-.05-.2-.08-.3-.37-1.38-.76-2.75-1.17-4.11-.06-.21-.13-.43-.19-.64-.37-1.24-.76-2.48-1.15-3.72-.11-.36-.23-.71-.35-1.07-.35-1.08-.72-2.16-1.09-3.24-.18-.52-.36-1.04-.55-1.56-.32-.9-.65-1.8-.98-2.69-.26-.71-.53-1.42-.81-2.12-.27-.7-.54-1.39-.82-2.09-.36-.9-.73-1.8-1.1-2.7-.2-.49-.41-.98-.62-1.47-.46-1.09-.94-2.17-1.42-3.25-.13-.29-.26-.58-.39-.87-.57-1.26-1.16-2.52-1.76-3.77-.05-.11-.1-.21-.15-.32-20.7-42.95-56.5-77.26-100.51-96.04-.16-.07-.33-.14-.49-.21-1.24-.52-2.49-1.04-3.74-1.54-.38-.15-.75-.3-1.13-.44-1.04-.41-2.09-.81-3.14-1.2-.59-.22-1.17-.43-1.76-.64-.85-.31-1.7-.61-2.56-.91-.78-.27-1.56-.53-2.33-.79-.68-.23-1.36-.45-2.04-.67-.94-.3-1.87-.59-2.81-.87-.54-.16-1.08-.33-1.62-.49-1.06-.31-2.12-.61-3.18-.9-.44-.12-.88-.24-1.32-.36-1.14-.31-2.28-.6-3.43-.88-.38-.09-.76-.19-1.14-.28-1.18-.29-2.37-.56-3.55-.83-.36-.08-.73-.16-1.1-.24-1.18-.26-2.37-.5-3.56-.74-.39-.08-.78-.15-1.17-.23-1.15-.22-2.31-.43-3.46-.63-.46-.08-.91-.16-1.37-.23-1.08-.18-2.17-.35-3.25-.51-.56-.08-1.12-.16-1.69-.24-.98-.14-1.96-.27-2.95-.39-.71-.09-1.42-.17-2.13-.25-.84-.1-1.68-.19-2.53-.28-.9-.09-1.81-.17-2.71-.25-.66-.06-1.33-.12-1.99-.17-1.16-.09-2.32-.16-3.49-.23-.42-.02-.84-.05-1.26-.08-1.52-.08-3.04-.14-4.57-.19-.08,0-.17,0-.25,0-1.68-.05-3.36-.07-5.04-.08h0c-50.52-.16-101.09,18.96-139.72,57.36h0S0,394.7,0,394.7h477.07Z"/><path class="cls-2" d="m656.25,278.82c.13-.29.26-.58.39-.86.48-1.08.96-2.17,1.42-3.26.21-.49.41-.98.62-1.47.37-.9.74-1.8,1.1-2.7.28-.69.55-1.38.82-2.08.27-.71.54-1.42.81-2.13.33-.89.66-1.79.98-2.68.19-.52.37-1.05.55-1.57.37-1.08.74-2.15,1.09-3.23.12-.36.23-.72.35-1.08.4-1.23.78-2.47,1.15-3.71.06-.22.13-.43.19-.65.4-1.37.79-2.74,1.17-4.11.03-.1.06-.21.08-.31.4-1.47.78-2.93,1.14-4.41,0-.03.01-.05.02-.08,1.5-6.13,2.7-12.31,3.61-18.53,0-.05.01-.1.02-.15.22-1.5.42-2.99.6-4.49.02-.14.03-.28.05-.42.17-1.41.32-2.83.46-4.24.03-.27.05-.55.07-.82.12-1.29.23-2.59.33-3.88.03-.48.06-.96.09-1.43.07-1.11.15-2.21.2-3.32.05-1.01.08-2.02.11-3.03.02-.6.05-1.19.07-1.79.04-1.62.06-3.25.06-4.89,0-.55-.01-1.1-.02-1.65,0-1.07-.02-2.14-.04-3.21-.02-.84-.06-1.68-.09-2.52-.03-.75-.05-1.51-.09-2.26-.05-1.05-.12-2.11-.18-3.16-.03-.51-.06-1.03-.1-1.54-.09-1.24-.19-2.47-.3-3.7-.03-.31-.05-.62-.08-.94-.13-1.39-.28-2.77-.44-4.15-.02-.15-.03-.29-.05-.44-.18-1.52-.38-3.03-.59-4.54,0,0,0,0,0-.01-1.78-12.46-4.75-24.78-8.91-36.78-.04-.11-.08-.22-.12-.33-.46-1.33-.95-2.66-1.44-3.99-.11-.29-.22-.58-.33-.87-.43-1.14-.87-2.27-1.32-3.4-.19-.48-.39-.97-.59-1.45-.38-.93-.77-1.86-1.16-2.79-.29-.68-.59-1.36-.89-2.03-.32-.72-.64-1.44-.96-2.16-.39-.86-.79-1.72-1.2-2.57-.25-.53-.5-1.06-.76-1.59-.49-1.01-.99-2.02-1.5-3.02-.19-.37-.37-.74-.56-1.11-.58-1.13-1.17-2.25-1.78-3.37-.13-.24-.26-.48-.39-.72-.66-1.21-1.33-2.41-2.01-3.6-.09-.16-.18-.32-.27-.47-.72-1.25-1.45-2.49-2.19-3.72-.07-.11-.13-.22-.2-.33-.76-1.25-1.53-2.49-2.32-3.72-.07-.1-.13-.21-.2-.31-.78-1.22-1.58-2.43-2.38-3.63-.09-.13-.18-.26-.27-.39-.78-1.16-1.58-2.31-2.38-3.45-.13-.19-.27-.37-.4-.56-.77-1.08-1.54-2.14-2.33-3.2-.2-.27-.4-.54-.6-.8-.73-.97-1.46-1.93-2.21-2.89-.3-.38-.6-.75-.89-1.13-.67-.84-1.34-1.68-2.02-2.51-.42-.51-.84-1.01-1.26-1.52-.58-.7-1.16-1.39-1.75-2.08-.58-.67-1.16-1.33-1.75-2-.46-.52-.92-1.05-1.38-1.56-.79-.88-1.6-1.75-2.42-2.62-.28-.3-.56-.61-.84-.9-1.12-1.18-2.25-2.35-3.41-3.51h0C580.82,22.41,531.54.17,477.07,0h0S0,0,0,0l337.34,337.34h0c38.64,38.39,89.2,57.51,139.72,57.36h0c1.69,0,3.37-.04,5.04-.08.08,0,.17,0,.25,0,1.53-.04,3.05-.11,4.57-.19.42-.02.85-.05,1.27-.08,1.16-.07,2.32-.14,3.48-.23.66-.05,1.33-.11,1.99-.17.9-.08,1.81-.16,2.71-.25.84-.08,1.68-.18,2.53-.28.71-.08,1.43-.16,2.14-.25.98-.12,1.96-.25,2.94-.39.56-.08,1.13-.16,1.69-.24,1.08-.16,2.17-.33,3.25-.51.46-.08.92-.15,1.38-.23,1.15-.2,2.3-.41,3.45-.63.39-.08.79-.15,1.18-.23,1.19-.23,2.37-.48,3.55-.74.37-.08.74-.16,1.1-.24,1.18-.26,2.36-.54,3.54-.82.38-.09.77-.19,1.15-.28,1.14-.28,2.28-.58,3.42-.88.44-.12.89-.24,1.33-.36,1.06-.29,2.12-.59,3.17-.9.54-.16,1.09-.32,1.63-.49.94-.28,1.87-.57,2.81-.87.69-.22,1.37-.44,2.05-.67.78-.26,1.55-.52,2.32-.78.86-.3,1.72-.6,2.57-.91.58-.21,1.17-.42,1.75-.64,1.06-.39,2.1-.8,3.15-1.21.37-.15.75-.29,1.12-.44,1.26-.5,2.5-1.01,3.75-1.54.16-.07.32-.13.48-.2,44.01-18.78,79.81-53.09,100.51-96.04.05-.1.1-.21.15-.31.6-1.25,1.19-2.51,1.76-3.78Z"/></g></svg>