<?xml version="1.0" encoding="UTF-8"?><svg id="Layer_2" xmlns="http://www.w3.org/2000/svg"  width="1200pt" height="1200pt" version="1.1" viewBox="0 0 1200 1200"><defs><style>.cls-1{fill:#002444;stroke-width:0px;}</style></defs><g id="Layer_1-2"><path class="cls-1" d="m733.27,0H48.76C21.88,0,0,21.86,0,48.76v982.5c0,26.88,21.86,48.76,48.76,48.76h522.25s.01,0,.01,0c1.93,0,3.77-.38,5.52-.96.28-.09.54-.14.8-.25,1.78-.67,3.38-1.63,4.85-2.8.13-.1.29-.13.41-.24l193.01-162.77c.18-.16.31-.35.49-.5.49-.45.94-.91,1.37-1.41.36-.41.72-.82,1.03-1.25.36-.49.67-1.01.98-1.54.29-.48.56-.96.79-1.46.25-.54.46-1.11.66-1.67.19-.54.37-1.07.5-1.62.13-.56.23-1.13.31-1.7.09-.61.16-1.22.19-1.84.01-.25.07-.49.07-.74V48.76c-.01-26.9-21.88-48.76-48.75-48.76h0ZM36.02,1031.3V48.8c0-7.04,5.71-12.76,12.74-12.76h684.5c7.03,0,12.76,5.72,12.76,12.76v832.49h-175.01c-9.95,0-18,8.06-18,18v144.76H48.76c-7.03,0-12.74-5.72-12.74-12.74h0Zm678.74-114.02l-125.75,106.04v-106.04h125.75s0,0,0,0Z"/><path class="cls-1" d="m431.11,540.09c14.31-14.31,25.89-32.71,34.07-53.15,4.77-12.27-1.36-25.89-14.31-30.66-6.13-2.05-12.27-2.05-18.4.68-5.45,2.73-10.22,7.49-12.27,13.63-4.77,13.63-12.95,25.89-23.17,36.11-17.72,17.72-42.25,27.94-68.14,27.94s-50.42-10.22-68.14-27.94l-85.86-85.17c-17.72-17.72-27.94-42.25-27.94-68.14s10.22-50.42,27.94-68.14c37.48-37.48,98.8-37.48,136.28,0l79.72,79.72c4.77,4.77,11.58,7.49,17.72,6.81,6.13,0,12.27-2.73,15.67-6.81,4.77-4.77,7.49-10.9,6.81-17.72,0-6.13-2.73-12.27-6.81-15.67l-79.04-80.4c-27.26-27.26-63.37-42.25-102.21-42.25h-.68c-38.16,0-74.27,14.99-101.53,42.25-27.26,27.26-42.25,63.37-42.25,102.21s14.99,74.27,42.25,102.21l85.17,84.49c27.26,27.26,63.37,42.25,102.21,42.25,38.16,0,74.95-14.99,102.89-42.25h0Z"/><path class="cls-1" d="m609.64,514.2l-85.86-84.49c-27.26-27.26-63.37-42.25-102.21-42.25s-74.27,14.99-102.21,42.25c-14.31,14.31-25.89,32.71-34.07,53.15-2.05,6.13-2.05,12.27.68,18.4,2.73,5.45,7.49,10.22,13.63,12.27,12.27,4.77,25.89-1.36,30.66-14.31,5.45-13.63,12.95-25.89,23.17-36.11,17.72-17.72,42.25-27.94,68.14-27.94s50.42,10.22,68.14,27.94l85.17,85.17c17.72,17.72,27.94,42.25,27.94,68.14s-10.22,50.42-27.94,68.14c-17.72,18.4-41.56,28.62-66.78,28.62h-.68c-25.21,0-49.74-10.22-67.46-27.94l-81.09-79.72c-4.77-4.77-10.9-7.49-17.72-6.81-6.13,0-12.27,2.73-15.67,6.81-4.77,4.77-7.49,10.9-6.81,17.72,0,6.13,2.73,12.27,6.81,15.67l79.72,79.72c27.26,27.26,63.37,42.25,102.21,42.25s74.27-14.99,102.21-42.25c27.26-27.26,42.25-63.37,42.25-102.21-.68-38.16-14.99-74.27-42.24-102.21h0Z"/></g></svg>