<?xml version="1.0" encoding="UTF-8"?>
<svg width="1200pt" height="1200pt" version="1.1" viewBox="0 0 1200 1200" xmlns="http://www.w3.org/2000/svg">
 <g fill="#002444">
  <path d="m698.4 697.2c25.199-25.199 45.602-57.602 60-93.602 8.3984-21.602-2.3984-45.602-25.199-54-10.801-3.6016-21.602-3.6016-32.398 1.1992-9.6016 4.8008-18 13.199-21.602 24-8.3984 24-22.801 45.602-40.801 63.602-31.199 31.199-74.398 49.199-120 49.199-44.398 0-88.801-18-120-49.199l-151.2-150c-31.199-31.199-49.199-74.398-49.199-120 0-44.398 18-88.801 49.199-120 66-66 174-66 240 0l140.4 140.4c8.3984 8.3984 20.398 13.199 31.199 12 10.801 0 21.602-4.8008 27.602-12 8.3984-8.3984 13.199-19.199 12-31.199 0-10.801-4.8008-21.602-12-27.602l-139.2-141.6c-48-48-111.6-74.398-180-74.398h-1.1992c-67.199 0-130.8 26.398-178.8 74.398s-74.398 111.6-74.398 180c0 67.199 26.398 130.8 74.398 180l150 148.8c48 48 111.6 74.398 180 74.398 67.199 0.003906 132-26.398 181.2-74.398z"/>
  <path d="m1012.8 651.6-151.2-148.8c-48-48-111.6-74.398-180-74.398-67.199 0-130.8 26.398-180 74.398-25.199 25.199-45.602 57.602-60 93.602-3.6016 10.801-3.6016 21.602 1.1992 32.398 4.8008 9.6016 13.199 18 24 21.602 21.602 8.3984 45.602-2.3984 54-25.199 9.6016-24 22.801-45.602 40.801-63.602 31.199-31.199 74.398-49.199 120-49.199 44.398 0 88.801 18 120 49.199l150 150c31.199 31.199 49.199 74.398 49.199 120 0 44.398-18 88.801-49.199 120-31.199 32.398-73.199 50.398-117.6 50.398h-1.1992c-44.398 0-87.602-18-118.8-49.199l-142.8-140.4c-8.3984-8.3984-19.199-13.199-31.199-12-10.801 0-21.602 4.8008-27.602 12-8.3984 8.3984-13.199 19.199-12 31.199 0 10.801 4.8008 21.602 12 27.602l140.4 140.4c48 48 111.6 74.398 180 74.398 67.199 0 130.8-26.398 180-74.398 48-48 74.398-111.6 74.398-180-1.1953-67.199-26.395-130.8-74.395-180z"/>
 </g>
</svg>
