<?xml version="1.0" encoding="UTF-8"?>
<svg width="1200pt" height="1200pt" version="1.1" viewBox="0 0 1200 1200" xmlns="http://www.w3.org/2000/svg">
 <path d="m418.63 373.29c-66.723 0-120.91 54.191-120.91 120.91v211.6c0 66.723 54.191 120.91 120.91 120.91h362.74c66.723 0 120.91-54.191 120.91-120.91v-211.6c0-66.723-54.191-120.91-120.91-120.91zm0 30.23h362.74c50.5 0 90.688 40.184 90.688 90.688v211.6c0 50.5-40.184 90.688-90.688 90.688h-362.74c-50.5 0-90.688-40.184-90.688-90.688v-211.6c0-50.5 40.184-90.688 90.688-90.688zm112.18 90.688v-0.003906c-3.7969 0.29688-7.3477 2.0195-9.9297 4.8242-2.582 2.8008-4.0117 6.4766-4 10.289v181.37c-0.019531 3.7734 1.3789 7.418 3.9141 10.215 2.5352 2.7969 6.0234 4.5469 9.7812 4.8984 3.0117 0.33984 6.0586-0.23828 8.7383-1.6523l166.26-90.688v0.003906c3.2422-1.7266 5.7461-4.5742 7.0391-8.0117 1.2969-3.4375 1.2969-7.2305 0-10.664-1.293-3.4375-3.7969-6.2852-7.0391-8.0117l-166.26-90.688c-2.5859-1.4492-5.543-2.1055-8.5039-1.8867zm16.297 40.852 119.26 64.941-119.26 65.184z" fill="#002444"/>
</svg>
